<svg version="1.1" id="Layer_1" xmlns="http://www.w3.org/2000/svg" xmlns:xlink="http://www.w3.org/1999/xlink" x="0px" y="0px"
	 width="100%" viewBox="0 0 487 478" enable-background="new 0 0 487 478" xml:space="preserve">
<path fill="#5F6FFF" opacity="1.000000" stroke="none" 
	d="
M2.000000,1.000000 
	C163.952377,1.000000 325.904755,1.000000 487.928558,1.000000 
	C487.928558,160.238846 487.928558,319.477722 487.928558,478.858307 
	C325.666748,478.858307 163.333389,478.858307 1.000000,478.858307 
	C1.000000,472.928711 1.000000,466.930756 1.327515,460.195496 
	C1.774744,457.141632 1.999052,454.825012 1.999234,452.508423 
	C2.011051,302.005615 2.004723,151.502808 2.000000,1.000000 
M194.028717,180.984436 
	C194.028717,180.984436 194.089462,180.959885 194.017532,180.476273 
	C194.017532,180.476273 193.753952,180.064453 193.660416,179.365906 
	C193.503998,178.925034 193.347580,178.484177 193.227310,177.445511 
	C192.763580,176.363892 192.299850,175.282288 191.878616,174.141983 
	C191.878616,174.141983 191.812622,174.112106 191.906509,173.577194 
	C191.871323,173.399826 191.836136,173.222458 191.868149,172.192947 
	C191.255157,168.252060 190.147369,164.312759 190.134827,160.369965 
	C190.110611,152.765945 188.846924,144.465912 191.380981,137.680908 
	C200.037308,114.503563 215.480133,97.353653 240.612030,89.817291 
	C241.412399,89.549843 242.212784,89.282387 243.849121,88.990944 
	C248.938110,88.321182 254.027100,87.651421 259.242004,87.139931 
	C259.242004,87.139931 259.533875,87.140511 259.533875,87.140511 
	C259.533875,87.140511 259.713654,86.921959 259.867065,86.965813 
	C259.867065,86.965813 259.967224,86.841667 260.906403,86.838493 
	C266.940125,86.840088 272.973846,86.841690 279.114655,86.966660 
	C279.114655,86.966660 279.272858,86.925865 279.374359,87.112709 
	C279.374359,87.112709 279.677582,87.171852 279.677582,87.171852 
	C279.677582,87.171852 279.924316,86.995354 280.663086,87.163277 
	C282.857330,87.618111 285.051575,88.072945 287.654877,88.684296 
	C287.654877,88.684296 288.089661,88.737160 288.651276,89.139809 
	C289.767792,89.384026 290.884308,89.628242 292.534119,90.094917 
	C292.916809,90.090996 293.299530,90.087082 294.008301,90.410576 
	C294.263580,90.606468 294.551666,90.693199 295.458588,90.974022 
	C299.618835,92.678200 303.779053,94.382370 308.008514,96.026321 
	C308.008514,96.026321 307.929871,96.070160 308.174744,96.663170 
	C309.098541,97.132767 310.022339,97.602356 310.885712,98.052162 
	C310.885712,98.052162 310.876740,98.115097 311.106873,98.714546 
	C312.403412,99.479530 313.699982,100.244514 315.000763,100.999191 
	C315.000763,100.999191 314.989380,101.001259 315.177307,101.466232 
	C315.454712,101.638588 315.732086,101.810944 315.999237,102.000572 
	C315.999237,102.000572 316.016479,101.990135 316.184601,102.460724 
	C316.381226,102.757362 316.655548,102.931885 316.999237,103.000763 
	C316.999237,103.000763 317.015564,102.992157 317.180908,103.462219 
	C317.377777,103.760574 317.653961,103.928383 317.998016,104.004128 
	C317.998016,104.004128 318.035095,103.988670 318.210480,104.443245 
	C318.403748,104.729828 318.670929,104.901245 318.996002,105.001915 
	C318.996002,105.001915 319.041260,104.988480 319.196747,105.456963 
	C319.388153,105.753609 319.658783,105.925674 319.997681,106.002419 
	C319.997681,106.002419 320.026703,105.991020 320.192108,106.455421 
	C320.388123,106.751366 320.663055,106.913498 321.003723,106.999855 
	C321.003723,106.999855 321.059784,106.979942 321.234192,107.435120 
	C321.428467,107.722961 321.697479,107.891411 322.283539,108.367149 
	C322.487579,108.633087 322.743713,108.831970 323.209595,109.417091 
	C323.398804,109.707787 323.666534,109.863358 324.041138,109.965828 
	C324.041138,109.965828 324.126831,109.979248 324.279755,110.404160 
	C324.459198,110.672661 324.709290,110.825752 325.044312,110.949478 
	C325.044312,110.949478 325.128204,110.973412 325.255981,111.426834 
	C325.429199,111.713623 325.679901,111.890846 325.995453,112.000778 
	C325.995453,112.000778 326.035431,111.982323 326.258789,112.622627 
	C329.112518,116.459526 331.966248,120.296417 334.820007,124.133316 
	C335.479614,123.704704 336.139252,123.276093 336.798889,122.847481 
	C334.231689,118.455757 331.664459,114.064034 329.004242,109.379570 
	C329.004242,109.379570 328.811829,109.140167 328.744293,108.637268 
	C328.502228,108.420174 328.260162,108.203087 328.000763,107.998474 
	C328.000763,107.998474 328.019043,107.980194 327.985931,107.341797 
	C327.311523,106.573044 326.637115,105.804298 326.001526,105.003319 
	C326.001526,105.003319 325.958862,105.025581 325.804474,104.546959 
	C325.533661,104.361977 325.262878,104.176994 324.995911,104.003609 
	C324.995911,104.003609 325.006927,104.008430 324.875092,103.407257 
	C324.216431,102.665649 323.557739,101.924049 322.880249,101.089653 
	C322.880249,101.089653 322.791595,101.056442 322.659332,100.640587 
	C322.491394,100.376144 322.251862,100.225395 321.913208,100.092392 
	C321.913208,100.092392 321.819305,100.058632 321.684052,99.624992 
	C321.509521,99.350807 321.261292,99.191093 320.934387,99.069351 
	C320.934387,99.069351 320.858429,99.058891 320.711578,98.613228 
	C320.529236,98.332939 320.272888,98.166855 319.955536,98.045212 
	C319.955536,98.045212 319.885620,98.057251 319.727509,97.605209 
	C319.552307,97.316399 319.301086,97.130180 318.997498,96.998535 
	C318.997498,96.998535 318.957153,97.034660 318.816864,96.377144 
	C315.546387,93.906998 312.275940,91.436852 308.972748,88.979012 
	C308.972748,88.979012 308.987457,89.010727 308.624115,88.444008 
	C307.546448,87.679611 306.517242,86.833191 305.383759,86.163177 
	C289.412781,76.722305 271.861481,74.998688 253.928192,76.429428 
	C247.471909,76.944519 241.172134,79.421486 234.481018,81.043465 
	C234.481018,81.043465 234.186020,81.173592 233.566391,81.124496 
	C233.376144,81.206581 233.185913,81.288658 232.290970,81.446053 
	C220.495087,85.541824 210.901031,92.763535 202.982468,102.284302 
	C195.758759,110.969620 190.888519,120.924500 187.563721,131.670792 
	C186.101425,136.397217 184.845093,136.759964 180.444260,134.842636 
	C176.214661,132.999893 171.838821,131.160431 167.340698,130.330063 
	C154.943176,128.041367 142.920242,130.687286 130.981186,133.947815 
	C107.115189,140.465591 92.635452,156.626144 84.113754,179.111618 
	C84.113754,179.111618 84.141281,179.191849 83.637413,179.573898 
	C83.425072,180.377502 83.212730,181.181122 82.598396,182.577484 
	C74.818504,203.095367 77.382736,223.172684 85.946442,242.649048 
	C97.846092,269.712311 118.047737,290.069336 140.831482,308.048950 
	C160.453598,323.533600 181.678055,336.618835 203.850601,348.110352 
	C215.170975,353.977509 226.793884,359.260925 238.475937,364.977631 
	C238.475937,364.977631 238.733444,365.005646 239.010269,365.469574 
	C239.338684,365.579071 239.667099,365.688568 240.415024,365.996979 
	C240.415024,365.996979 240.873978,366.067139 241.252655,366.534332 
	C241.818665,366.705719 242.384659,366.877136 243.423355,367.536682 
	C249.970612,370.356049 256.517883,373.175446 263.478638,376.408966 
	C264.412750,376.655579 265.346832,376.902191 266.743164,377.513885 
	C267.116211,377.629242 267.489258,377.744598 268.324402,378.421814 
	C275.346222,381.336853 282.311035,384.400391 289.406647,387.123138 
	C295.866821,389.602051 302.468994,391.710999 309.000000,394.000000 
	C309.000000,394.000000 309.010681,393.984192 309.432495,394.538025 
	C311.963043,395.339630 314.493591,396.141266 317.026489,396.998352 
	C317.026489,396.998352 317.073883,396.968384 317.523224,397.499603 
	C321.640778,398.938812 325.758331,400.378021 329.875885,401.817230 
	C330.155243,401.367126 330.434601,400.917023 330.713959,400.466949 
	C328.134125,398.000916 325.554260,395.534912 322.993073,393.005676 
	C322.993073,393.005676 322.927826,392.997070 322.802643,392.535309 
	C322.616241,392.247955 322.353149,392.082642 322.022278,391.980530 
	C322.022278,391.980530 321.962921,391.983856 321.824768,391.508301 
	C321.635681,391.205627 321.363617,391.036011 320.767059,390.595612 
	C320.570465,390.337952 320.317383,390.161133 319.750366,389.439880 
	C306.456757,373.072571 292.897736,356.912292 279.931488,340.289642 
	C260.256744,315.066833 243.324295,288.029327 228.443405,259.721619 
	C221.870514,247.218140 215.559006,234.577255 209.066376,221.219620 
	C204.337769,208.479874 199.609177,195.740128 194.840424,182.421722 
	C194.766403,182.243088 194.692398,182.064468 194.577423,181.487610 
	C194.478088,181.220413 194.297256,181.030945 194.028717,180.984436 
M283.658936,232.331482 
	C283.680725,228.200836 283.702515,224.070190 283.748596,219.436783 
	C283.787231,219.273499 283.825867,219.110229 284.387146,218.558807 
	C285.508148,218.187256 286.629150,217.815689 288.000031,218.150482 
	C290.158569,224.961212 292.236176,231.798859 294.491119,238.577530 
	C300.838989,257.660095 307.276459,276.712891 313.636841,295.791321 
	C314.810242,299.310974 316.186005,301.557983 320.799805,301.729706 
	C326.542877,301.943420 327.701569,298.536255 329.143799,294.501343 
	C338.371704,268.683533 347.659302,242.887085 357.711334,217.003632 
	C358.739777,217.163193 359.768188,217.322754 360.854187,217.992950 
	C360.852722,218.334915 360.851227,218.676895 360.548645,219.532623 
	C360.686920,220.642731 360.825226,221.752853 361.178192,223.795944 
	C362.488403,247.885971 363.798706,271.976013 365.108765,296.066040 
	C365.438080,302.121399 366.626465,302.700684 375.154510,302.090271 
	C380.562012,301.703186 378.878723,297.843903 378.718719,295.074066 
	C377.625153,276.146423 376.352997,257.229095 375.133514,238.308731 
	C374.202911,223.869644 373.334229,209.425629 372.215179,195.001083 
	C372.112183,193.673904 370.517792,191.533600 369.399445,191.383469 
	C365.638824,190.878662 361.778107,191.163986 357.959869,191.029388 
	C354.985718,190.924561 353.440460,192.421997 352.497253,195.094635 
	C343.747040,219.889114 334.965912,244.672745 326.134552,269.438416 
	C325.185242,272.100525 323.860077,274.628601 322.114044,278.558685 
	C320.786865,275.896210 320.014771,274.707672 319.572693,273.406982 
	C311.649384,250.095245 303.768890,226.768982 295.872925,203.447922 
	C291.686127,191.082031 291.676788,191.294510 279.035645,191.056351 
	C274.362579,190.968307 273.097595,192.608948 272.877930,197.032928 
	C272.168854,211.312149 271.061554,225.572067 270.065369,239.836456 
	C268.767303,258.422882 267.376801,277.003021 266.135956,295.593170 
	C265.707855,302.006805 265.858185,302.017487 272.211792,302.037415 
	C273.045044,302.040039 273.882721,301.975616 274.710876,302.039368 
	C277.465149,302.251373 279.034302,301.456146 279.181763,298.256409 
	C279.457031,292.284637 280.225464,286.337219 280.581390,280.367279 
	C281.521973,264.589722 282.351624,248.805557 283.658936,232.331482 
z"/>
<path fill="#B6B9B7" opacity="1.000000" stroke="none" 
	d="
M1.500000,1.000000 
	C2.004723,151.502808 2.011051,302.005615 1.999234,452.508423 
	C1.999052,454.825012 1.774744,457.141632 1.327515,459.729126 
	C1.000000,307.000000 1.000000,154.000000 1.500000,1.000000 
z"/>
<path fill="#FEFFFE" opacity="1.000000" stroke="none" 
	d="
M238.733444,365.005646 
	C238.733444,365.005646 238.475937,364.977631 238.286835,364.548340 
	C237.516403,363.326965 237.105988,362.192841 236.324097,361.802063 
	C232.976517,360.129150 229.566574,358.557800 226.092972,357.164856 
	C217.607025,353.761841 211.570282,345.716095 201.955322,344.471405 
	C201.643494,344.431000 201.347488,344.205719 201.061584,344.036987 
	C193.546844,339.602325 185.868683,335.418762 178.559052,330.668213 
	C166.532257,322.851898 154.198914,315.353424 143.007584,306.448151 
	C131.579239,297.354279 120.785400,287.276123 110.792084,276.617889 
	C100.643578,265.794037 93.281845,252.709106 87.221153,239.217041 
	C79.548798,222.137192 78.407227,204.300293 84.169281,186.229782 
	C84.580093,184.941452 84.154999,183.386597 84.138115,181.610809 
	C84.152199,180.574585 84.146736,179.883209 84.141281,179.191849 
	C84.141281,179.191849 84.113754,179.111618 84.467987,178.993347 
	C86.093262,177.158539 87.390862,175.460953 88.630775,173.722244 
	C94.140419,165.996078 98.826599,157.483353 105.327934,150.711899 
	C114.344635,141.320587 126.795830,137.324646 139.153397,134.290817 
	C154.107147,130.619629 168.920441,130.295425 183.030670,138.452652 
	C185.998260,140.168228 186.992950,141.643311 187.163345,144.774673 
	C187.658432,153.872620 188.413788,162.957748 189.208237,172.035553 
	C189.274704,172.795059 190.400360,173.461899 191.229843,174.173309 
	C191.425781,174.174805 191.812622,174.112106 191.812622,174.112106 
	C191.812622,174.112106 191.878616,174.141983 191.810593,174.549942 
	C191.815735,175.966949 191.888901,176.975983 191.787506,178.259689 
	C192.137619,180.018555 192.662292,181.502747 193.154114,183.296906 
	C196.397690,193.406189 199.528366,203.258057 203.033371,212.974899 
	C204.184174,216.165237 206.305420,219.005508 208.017242,222.384689 
	C211.898071,231.309326 215.281052,240.103317 219.694290,248.345642 
	C227.253067,262.462708 236.048935,275.939056 243.189941,290.250946 
	C248.330002,300.552582 255.291321,309.476898 261.592621,318.900940 
	C267.761688,328.127258 274.294800,337.136108 281.100250,345.904999 
	C291.714264,359.581299 302.662079,372.999634 313.562836,386.450745 
	C314.726044,387.886108 316.517670,388.812195 317.989410,390.342285 
	C317.638641,392.139404 317.316284,393.568848 316.604370,394.921509 
	C313.813446,394.557892 311.412048,394.271057 309.010681,393.984192 
	C309.010681,393.984192 309.000000,394.000000 308.825928,393.695312 
	C307.585968,392.625519 306.621277,391.597229 305.436340,391.141602 
	C300.763153,389.344696 295.982300,387.826447 291.317108,386.010284 
	C288.000031,384.718994 284.823120,383.072235 281.549042,381.664581 
	C278.268677,380.254211 274.989166,378.815552 271.615845,377.662750 
	C270.515656,377.286743 269.121826,377.769775 267.862305,377.859924 
	C267.489258,377.744598 267.116211,377.629242 266.431641,377.136475 
	C265.823334,376.471283 265.526550,376.183533 265.081909,375.581421 
	C264.522675,374.762329 264.215088,374.026001 263.684204,373.788208 
	C257.451050,370.996429 251.194244,368.256378 244.907974,365.586670 
	C244.408188,365.374420 243.643539,365.785797 242.826828,365.881409 
	C242.651672,365.855408 242.300186,365.810303 242.231934,365.545258 
	C241.392914,365.082550 240.622131,364.884888 239.568573,364.755188 
	C239.101669,364.883972 238.917557,364.944794 238.733444,365.005646 
z"/>
<path fill="#EBFBFB" opacity="1.000000" stroke="none" 
	d="
M283.864502,218.946960 
	C283.825867,219.110229 283.787231,219.273499 283.585144,220.063202 
	C283.356293,224.801102 283.290863,228.912567 283.225464,233.024033 
	C282.351624,248.805557 281.521973,264.589722 280.581390,280.367279 
	C280.225464,286.337219 279.457031,292.284637 279.181763,298.256409 
	C279.034302,301.456146 277.465149,302.251373 274.710876,302.039368 
	C273.882721,301.975616 273.045044,302.040039 272.211792,302.037415 
	C265.858185,302.017487 265.707855,302.006805 266.135956,295.593170 
	C267.376801,277.003021 268.767303,258.422882 270.065369,239.836456 
	C271.061554,225.572067 272.168854,211.312149 272.877930,197.032928 
	C273.097595,192.608948 274.362579,190.968307 279.035645,191.056351 
	C291.676788,191.294510 291.686127,191.082031 295.872925,203.447922 
	C303.768890,226.768982 311.649384,250.095245 319.572693,273.406982 
	C320.014771,274.707672 320.786865,275.896210 322.114044,278.558685 
	C323.860077,274.628601 325.185242,272.100525 326.134552,269.438416 
	C334.965912,244.672745 343.747040,219.889114 352.497253,195.094635 
	C353.440460,192.421997 354.985718,190.924561 357.959869,191.029388 
	C361.778107,191.163986 365.638824,190.878662 369.399445,191.383469 
	C370.517792,191.533600 372.112183,193.673904 372.215179,195.001083 
	C373.334229,209.425629 374.202911,223.869644 375.133514,238.308731 
	C376.352997,257.229095 377.625153,276.146423 378.718719,295.074066 
	C378.878723,297.843903 380.562012,301.703186 375.154510,302.090271 
	C366.626465,302.700684 365.438080,302.121399 365.108765,296.066040 
	C363.798706,271.976013 362.488403,247.885971 361.142883,222.950165 
	C361.021667,221.075882 360.935699,220.047379 360.849731,219.018860 
	C360.851227,218.676895 360.852722,218.334915 360.915985,217.260895 
	C360.977783,213.785248 360.977783,211.041656 360.977783,208.298080 
	C360.366180,208.259689 359.754547,208.221313 359.142944,208.182922 
	C358.404388,211.149811 357.665802,214.116699 356.927246,217.083588 
	C347.659302,242.887085 338.371704,268.683533 329.143799,294.501343 
	C327.701569,298.536255 326.542877,301.943420 320.799805,301.729706 
	C316.186005,301.557983 314.810242,299.310974 313.636841,295.791321 
	C307.276459,276.712891 300.838989,257.660095 294.491119,238.577530 
	C292.236176,231.798859 290.158569,224.961212 287.890747,217.379456 
	C287.040405,213.842117 286.299286,211.075806 285.558197,208.309479 
	C284.993622,208.355133 284.429077,208.400787 283.864502,208.446442 
	C283.864502,211.946609 283.864502,215.446793 283.864502,218.946960 
z"/>
<path fill="#C7F4F9" opacity="1.000000" stroke="none" 
	d="
M191.033905,174.171799 
	C190.400360,173.461899 189.274704,172.795059 189.208237,172.035553 
	C188.413788,162.957748 187.658432,153.872620 187.163345,144.774673 
	C186.992950,141.643311 185.998260,140.168228 183.030670,138.452652 
	C168.920441,130.295425 154.107147,130.619629 139.153397,134.290817 
	C126.795830,137.324646 114.344635,141.320587 105.327934,150.711899 
	C98.826599,157.483353 94.140419,165.996078 88.630775,173.722244 
	C87.390862,175.460953 86.093262,177.158539 84.508759,178.981644 
	C92.635452,156.626144 107.115189,140.465591 130.981186,133.947815 
	C142.920242,130.687286 154.943176,128.041367 167.340698,130.330063 
	C171.838821,131.160431 176.214661,132.999893 180.444260,134.842636 
	C184.845093,136.759964 186.101425,136.397217 187.563721,131.670792 
	C190.888519,120.924500 195.758759,110.969620 202.982468,102.284302 
	C210.901031,92.763535 220.495087,85.541824 232.673676,81.632019 
	C233.056381,81.817978 233.129074,82.263634 232.955322,82.546539 
	C232.401123,83.145905 232.069992,83.583748 231.633087,83.761360 
	C214.464523,90.740768 202.652786,103.331955 194.362885,119.524132 
	C193.213806,121.768600 192.825256,124.402458 192.084625,126.856049 
	C192.577774,127.024330 193.070923,127.192612 193.564056,127.360893 
	C194.351868,126.161095 195.272171,125.027237 195.907120,123.751373 
	C202.787292,109.925934 213.141586,99.437859 226.858368,92.523796 
	C230.867447,90.502998 235.647995,90.012718 240.043854,89.072845 
	C239.997055,89.492218 239.981308,89.659683 239.965561,89.827141 
	C215.480133,97.353653 200.037308,114.503563 191.380981,137.680908 
	C188.846924,144.465912 190.110611,152.765945 190.134827,160.369965 
	C190.147369,164.312759 191.255157,168.252060 191.679352,172.785980 
	C191.297134,173.619537 191.144913,173.883789 191.033905,174.171799 
z"/>
<path fill="#CAF6FA" opacity="1.000000" stroke="none" 
	d="
M84.118576,181.955658 
	C84.154999,183.386597 84.580093,184.941452 84.169281,186.229782 
	C78.407227,204.300293 79.548798,222.137192 87.221153,239.217041 
	C93.281845,252.709106 100.643578,265.794037 110.792084,276.617889 
	C120.785400,287.276123 131.579239,297.354279 143.007584,306.448151 
	C154.198914,315.353424 166.532257,322.851898 178.559052,330.668213 
	C185.868683,335.418762 193.546844,339.602325 201.061584,344.036987 
	C201.347488,344.205719 201.643494,344.431000 201.955322,344.471405 
	C211.570282,345.716095 217.607025,353.761841 226.092972,357.164856 
	C229.566574,358.557800 232.976517,360.129150 236.324097,361.802063 
	C237.105988,362.192841 237.516403,363.326965 238.188904,364.463623 
	C226.793884,359.260925 215.170975,353.977509 203.850601,348.110352 
	C181.678055,336.618835 160.453598,323.533600 140.831482,308.048950 
	C118.047737,290.069336 97.846092,269.712311 85.946442,242.649048 
	C77.382736,223.172684 74.818504,203.095367 83.078995,182.277023 
	C83.745926,181.969589 83.932251,181.962631 84.118576,181.955658 
z"/>
<path fill="#F5FDFC" opacity="1.000000" stroke="none" 
	d="
M240.074936,88.820923 
	C235.647995,90.012718 230.867447,90.502998 226.858368,92.523796 
	C213.141586,99.437859 202.787292,109.925934 195.907120,123.751373 
	C195.272171,125.027237 194.351868,126.161095 193.564056,127.360893 
	C193.070923,127.192612 192.577774,127.024330 192.084625,126.856049 
	C192.825256,124.402458 193.213806,121.768600 194.362885,119.524132 
	C202.652786,103.331955 214.464523,90.740768 231.633087,83.761360 
	C232.069992,83.583748 232.401123,83.145905 233.149078,82.381897 
	C233.739731,81.680763 233.962875,81.427185 234.186035,81.173599 
	C234.186020,81.173592 234.481018,81.043465 235.098633,81.058014 
	C237.855377,80.847519 239.993515,80.612625 242.133789,80.399185 
	C250.359558,79.578835 258.608978,77.924873 266.806732,78.148903 
	C278.710205,78.474197 290.601776,79.934967 301.288483,86.199814 
	C303.607239,87.559128 306.408447,88.095383 308.987457,89.010727 
	C308.987457,89.010727 308.972748,88.979012 309.039795,89.314041 
	C311.441223,92.044754 313.775604,94.440445 315.966034,97.135422 
	C315.531311,98.030991 315.240570,98.627281 314.612061,99.114418 
	C313.141785,98.708549 312.009247,98.411819 310.876740,98.115097 
	C310.876740,98.115097 310.885712,98.052162 310.820984,97.741669 
	C309.814148,96.977509 308.872009,96.523834 307.929871,96.070160 
	C307.929871,96.070160 308.008514,96.026321 307.915833,95.708923 
	C303.511780,90.827179 298.065796,89.018791 291.660645,88.842178 
	C291.000885,88.827209 290.623627,88.824265 290.040039,88.695175 
	C289.282349,88.651321 288.730927,88.733612 288.172302,88.778801 
	C288.165100,88.741699 288.089661,88.737160 288.089661,88.737160 
	C288.089661,88.737160 287.654877,88.684296 287.358398,88.271454 
	C285.039276,84.459274 282.125610,84.687782 278.631317,85.855301 
	C277.593689,85.847397 276.901733,85.857193 275.820801,85.696960 
	C270.888855,85.642929 266.345947,85.758911 261.511658,85.859756 
	C260.831879,85.850449 260.443420,85.856277 259.718323,85.706131 
	C253.484451,86.609230 247.587250,87.668304 241.421722,88.749184 
	C240.793915,88.787628 240.434418,88.804276 240.074936,88.820923 
z"/>
<path fill="#C5F3F9" opacity="1.000000" stroke="none" 
	d="
M318.017792,389.974548 
	C316.517670,388.812195 314.726044,387.886108 313.562836,386.450745 
	C302.662079,372.999634 291.714264,359.581299 281.100250,345.904999 
	C274.294800,337.136108 267.761688,328.127258 261.592621,318.900940 
	C255.291321,309.476898 248.330002,300.552582 243.189941,290.250946 
	C236.048935,275.939056 227.253067,262.462708 219.694290,248.345642 
	C215.281052,240.103317 211.898071,231.309326 208.303802,222.382660 
	C208.746948,222.000763 208.937897,221.999756 209.128845,221.998749 
	C215.559006,234.577255 221.870514,247.218140 228.443405,259.721619 
	C243.324295,288.029327 260.256744,315.066833 279.931488,340.289642 
	C292.897736,356.912292 306.456757,373.072571 319.546143,389.748138 
	C318.900543,390.029114 318.459167,390.001831 318.017792,389.974548 
z"/>
<path fill="#C3F4FA" opacity="1.000000" stroke="none" 
	d="
M308.805786,88.727371 
	C306.408447,88.095383 303.607239,87.559128 301.288483,86.199814 
	C290.601776,79.934967 278.710205,78.474197 266.806732,78.148903 
	C258.608978,77.924873 250.359558,79.578835 242.133789,80.399185 
	C239.993515,80.612625 237.855377,80.847519 235.258591,81.037849 
	C241.172134,79.421486 247.471909,76.944519 253.928192,76.429428 
	C271.861481,74.998688 289.412781,76.722305 305.383759,86.163177 
	C306.517242,86.833191 307.546448,87.679611 308.805786,88.727371 
z"/>
<path fill="#C3F3F9" opacity="1.000000" stroke="none" 
	d="
M209.097610,221.609192 
	C208.937897,221.999756 208.746948,222.000763 208.269440,222.003815 
	C206.305420,219.005508 204.184174,216.165237 203.033371,212.974899 
	C199.528366,203.258057 196.397690,193.406189 193.434341,183.302704 
	C194.125137,182.999161 194.502853,182.999771 194.880585,183.000381 
	C199.609177,195.740128 204.337769,208.479874 209.097610,221.609192 
z"/>
<path fill="#C5F3F9" opacity="1.000000" stroke="none" 
	d="
M268.093353,378.140869 
	C269.121826,377.769775 270.515656,377.286743 271.615845,377.662750 
	C274.989166,378.815552 278.268677,380.254211 281.549042,381.664581 
	C284.823120,383.072235 288.000031,384.718994 291.317108,386.010284 
	C295.982300,387.826447 300.763153,389.344696 305.436340,391.141602 
	C306.621277,391.597229 307.585968,392.625519 308.830200,393.686829 
	C302.468994,391.710999 295.866821,389.602051 289.406647,387.123138 
	C282.311035,384.400391 275.346222,381.336853 268.093353,378.140869 
z"/>
<path fill="#DEFDFD" opacity="1.000000" stroke="none" 
	d="
M314.949829,99.223557 
	C315.240570,98.627281 315.531311,98.030991 316.320190,97.164078 
	C317.531219,96.940514 318.244202,96.987587 318.957153,97.034660 
	C318.957153,97.034660 318.997498,96.998535 319.078186,97.238823 
	C319.338409,97.750664 319.580658,97.943375 319.885620,98.057251 
	C319.885620,98.057251 319.955536,98.045212 320.049896,98.283051 
	C320.323730,98.777985 320.561768,98.957321 320.858429,99.058891 
	C320.858429,99.058891 320.934387,99.069351 321.029449,99.306450 
	C321.297729,99.793991 321.529327,99.965691 321.819305,100.058632 
	C321.819305,100.058632 321.913208,100.092392 322.012390,100.333847 
	C322.279663,100.818405 322.506348,100.978790 322.791595,101.056442 
	C322.791595,101.056442 322.880249,101.089653 322.913818,101.458389 
	C323.633911,102.554222 324.320435,103.281326 325.006927,104.008430 
	C325.006927,104.008430 324.995911,104.003609 325.097809,104.218536 
	C325.390625,104.710510 325.643677,104.907883 325.958862,105.025581 
	C325.958862,105.025581 326.001526,105.003319 326.000793,105.350800 
	C326.673065,106.458916 327.346069,107.219551 328.019043,107.980194 
	C328.019043,107.980194 328.000763,107.998474 328.080444,108.220932 
	C328.315155,108.733772 328.532410,108.966034 328.811829,109.140167 
	C328.811829,109.140167 329.004242,109.379570 328.935272,109.861969 
	C327.922668,110.890350 326.979034,111.436333 326.035431,111.982315 
	C326.035431,111.982323 325.995453,112.000778 325.920654,111.763550 
	C325.677368,111.250175 325.438141,111.065872 325.128204,110.973412 
	C325.128204,110.973412 325.044312,110.949478 324.949524,110.703049 
	C324.675079,110.201454 324.432465,110.042336 324.126831,109.979248 
	C324.126831,109.979248 324.041138,109.965828 323.931030,109.713310 
	C323.627228,109.198151 323.370911,109.032486 323.051880,108.963799 
	C322.743713,108.831970 322.487579,108.633087 322.061218,107.937042 
	C321.642303,107.237930 321.382599,107.062263 321.059784,106.979942 
	C321.059784,106.979942 321.003723,106.999855 320.903015,106.758888 
	C320.602509,106.255859 320.343964,106.080231 320.026703,105.991020 
	C320.026703,105.991020 319.997681,106.002419 319.901031,105.771805 
	C319.612061,105.271263 319.357697,105.087029 319.041260,104.988480 
	C319.041260,104.988480 318.996002,105.001915 318.903748,104.762375 
	C318.616913,104.251450 318.358124,104.073395 318.035095,103.988670 
	C318.035095,103.988670 317.998016,104.004128 317.894501,103.771042 
	C317.591980,103.271576 317.333496,103.089638 317.015564,102.992157 
	C317.015564,102.992157 316.999237,103.000763 316.896179,102.775085 
	C316.595245,102.278214 316.336395,102.091789 316.016479,101.990135 
	C316.016479,101.990135 315.999237,102.000572 315.891724,101.774857 
	C315.579376,101.279282 315.314453,101.096657 314.989380,101.001259 
	C314.989380,101.001259 315.000763,100.999191 315.005219,100.705353 
	C314.989716,100.015526 314.969757,99.619545 314.949829,99.223557 
z"/>
<path fill="#CAF6FA" opacity="1.000000" stroke="none" 
	d="
M243.001984,365.907410 
	C243.643539,365.785797 244.408188,365.374420 244.907974,365.586670 
	C251.194244,368.256378 257.451050,370.996429 263.684204,373.788208 
	C264.215088,374.026001 264.522675,374.762329 264.719238,375.604034 
	C264.024689,375.958984 263.544922,375.976898 263.065125,375.994812 
	C256.517883,373.175446 249.970612,370.356049 243.201935,367.007507 
	C242.987686,366.287994 242.994843,366.097687 243.001984,365.907410 
z"/>
<path fill="#AEEEF5" opacity="1.000000" stroke="none" 
	d="
M326.147095,112.302475 
	C326.979034,111.436333 327.922668,110.890350 328.981781,110.008331 
	C331.664459,114.064034 334.231689,118.455757 336.798889,122.847481 
	C336.139252,123.276093 335.479614,123.704704 334.820007,124.133316 
	C331.966248,120.296417 329.112518,116.459526 326.147095,112.302475 
z"/>
<path fill="#C5F3F9" opacity="1.000000" stroke="none" 
	d="
M322.974426,393.068878 
	C325.554260,395.534912 328.134125,398.000916 330.713959,400.466949 
	C330.434601,400.917023 330.155243,401.367126 329.875885,401.817230 
	C325.758331,400.378021 321.640778,398.938812 317.703979,397.214355 
	C320.758087,397.193909 323.258087,396.966522 322.974426,393.068878 
z"/>
<path fill="#C7F4F9" opacity="1.000000" stroke="none" 
	d="
M291.943146,88.854210 
	C298.065796,89.018791 303.511780,90.827179 307.881226,95.739044 
	C303.779053,94.382370 299.618835,92.678200 294.984161,90.695557 
	C294.250427,90.264885 293.974579,90.153572 293.682220,90.083160 
	C293.299530,90.087082 292.916809,90.090996 292.255798,89.729004 
	C291.966064,89.193466 291.954590,89.023834 291.943146,88.854210 
z"/>
<path fill="#E7FEFE" opacity="1.000000" stroke="none" 
	d="
M322.983765,393.037292 
	C323.258087,396.966522 320.758087,397.193909 317.479309,396.948730 
	C317.073883,396.968384 317.026489,396.998352 317.029755,396.646484 
	C317.019989,395.862488 317.006958,395.430389 316.993896,394.998260 
	C317.316284,393.568848 317.638641,392.139404 317.989410,390.342285 
	C318.459167,390.001831 318.900543,390.029114 319.674866,390.060791 
	C320.317383,390.161133 320.570465,390.337952 320.994995,391.006958 
	C321.413971,391.679565 321.660645,391.868103 321.962921,391.983856 
	C321.962921,391.983856 322.022278,391.980530 322.117676,392.214722 
	C322.394043,392.706268 322.632324,392.888977 322.927826,392.997070 
	C322.927826,392.997070 322.993073,393.005676 322.983765,393.037292 
z"/>
<path fill="#C7F4F9" opacity="1.000000" stroke="none" 
	d="
M241.690048,88.727386 
	C247.587250,87.668304 253.484451,86.609230 259.692902,85.951263 
	C260.004150,86.352379 259.967224,86.841667 259.967224,86.841667 
	C259.967224,86.841667 259.867065,86.965813 259.641418,86.958511 
	C259.415802,86.951218 259.116089,86.981659 259.116089,86.981659 
	C254.027100,87.651421 248.938110,88.321182 243.099106,88.937126 
	C242.129395,88.831329 241.909714,88.779358 241.690048,88.727386 
z"/>
<path fill="#79BEC3" opacity="1.000000" stroke="none" 
	d="
M357.319275,217.043610 
	C357.665802,214.116699 358.404388,211.149811 359.142944,208.182922 
	C359.754547,208.221313 360.366180,208.259689 360.977783,208.298080 
	C360.977783,211.041656 360.977783,213.785248 360.887207,217.005585 
	C359.768188,217.322754 358.739777,217.163193 357.319275,217.043610 
z"/>
<path fill="#AFEBF5" opacity="1.000000" stroke="none" 
	d="
M318.887024,96.705902 
	C318.244202,96.987587 317.531219,96.940514 316.464111,96.864792 
	C313.775604,94.440445 311.441223,92.044754 309.056152,89.307884 
	C312.275940,91.436852 315.546387,93.906998 318.887024,96.705902 
z"/>
<path fill="#84BECC" opacity="1.000000" stroke="none" 
	d="
M284.125824,218.752884 
	C283.864502,215.446793 283.864502,211.946609 283.864502,208.446442 
	C284.429077,208.400787 284.993622,208.355133 285.558197,208.309479 
	C286.299286,211.075806 287.040405,213.842117 287.765808,217.026276 
	C286.629150,217.815689 285.508148,218.187256 284.125824,218.752884 
z"/>
<path fill="#C5F2FA" opacity="1.000000" stroke="none" 
	d="
M260.436829,86.840080 
	C259.967224,86.841667 260.004150,86.352379 260.029572,86.107246 
	C260.443420,85.856277 260.831879,85.850449 261.995789,85.887695 
	C267.250793,85.909508 271.730316,85.888245 276.209808,85.866974 
	C276.901733,85.857193 277.593689,85.847397 278.640015,86.098297 
	C278.994446,86.358986 279.007568,86.843285 279.007568,86.843285 
	C272.973846,86.841690 266.940125,86.840088 260.436829,86.840080 
z"/>
<path fill="#C7F4F9" opacity="1.000000" stroke="none" 
	d="
M279.061096,86.904968 
	C279.007568,86.843285 278.994446,86.358986 278.985718,86.115990 
	C282.125610,84.687782 285.039276,84.459274 287.153870,88.193192 
	C285.051575,88.072945 282.857330,87.618111 280.131348,87.060944 
	C279.599640,86.958618 279.272858,86.925865 279.272858,86.925865 
	C279.272858,86.925865 279.114655,86.966660 279.061096,86.904968 
z"/>
<path fill="#C5F3F9" opacity="1.000000" stroke="none" 
	d="
M316.604370,394.921509 
	C317.006958,395.430389 317.019989,395.862488 317.028564,396.618744 
	C314.493591,396.141266 311.963043,395.339630 309.221588,394.261108 
	C311.412048,394.271057 313.813446,394.557892 316.604370,394.921509 
z"/>
<path fill="#C7F4F9" opacity="1.000000" stroke="none" 
	d="
M194.860504,182.711060 
	C194.502853,182.999771 194.125137,182.999161 193.467194,182.992752 
	C192.662292,181.502747 192.137619,180.018555 191.993011,178.268127 
	C192.645767,178.015778 192.918472,178.029572 193.191162,178.043320 
	C193.347580,178.484177 193.503998,178.925034 193.666779,179.843872 
	C193.682373,180.612106 193.821152,180.824783 194.089462,180.959885 
	C194.089462,180.959885 194.028717,180.984436 194.109192,181.125198 
	C194.304932,181.491714 194.447845,181.698334 194.618393,181.885834 
	C194.692398,182.064468 194.766403,182.243088 194.860504,182.711060 
z"/>
<path fill="#84BECC" opacity="1.000000" stroke="none" 
	d="
M283.442200,232.677765 
	C283.290863,228.912567 283.356293,224.801102 283.572998,220.314590 
	C283.702515,224.070190 283.680725,228.200836 283.442200,232.677765 
z"/>
<path fill="#AEEEF5" opacity="1.000000" stroke="none" 
	d="
M314.612061,99.114410 
	C314.969757,99.619545 314.989716,100.015526 315.003113,100.710510 
	C313.699982,100.244514 312.403412,99.479530 310.991821,98.414825 
	C312.009247,98.411819 313.141785,98.708549 314.612061,99.114410 
z"/>
<path fill="#CAF6FA" opacity="1.000000" stroke="none" 
	d="
M239.851364,364.687225 
	C240.622131,364.884888 241.392914,365.082550 241.875122,365.614807 
	C241.349030,365.988647 241.111496,366.027893 240.873978,366.067139 
	C240.873978,366.067139 240.415024,365.996979 240.173340,365.619324 
	C239.904892,365.056854 239.878128,364.872040 239.851364,364.687225 
z"/>
<path fill="#AFEBF5" opacity="1.000000" stroke="none" 
	d="
M324.941010,103.707840 
	C324.320435,103.281326 323.633911,102.554222 322.923248,101.504784 
	C323.557739,101.924049 324.216431,102.665649 324.941010,103.707840 
z"/>
<path fill="#C7F4F9" opacity="1.000000" stroke="none" 
	d="
M308.052307,96.366669 
	C308.872009,96.523834 309.814148,96.977509 310.851196,97.751564 
	C310.022339,97.602356 309.098541,97.132767 308.052307,96.366669 
z"/>
<path fill="#C3F3F9" opacity="1.000000" stroke="none" 
	d="
M193.209229,177.744415 
	C192.918472,178.029572 192.645767,178.015778 192.167572,177.993469 
	C191.888901,176.975983 191.815735,175.966949 191.789352,174.579285 
	C192.299850,175.282288 192.763580,176.363892 193.209229,177.744415 
z"/>
<path fill="#AFEBF5" opacity="1.000000" stroke="none" 
	d="
M328.002502,107.660995 
	C327.346069,107.219551 326.673065,106.458916 325.981384,105.366913 
	C326.637115,105.804298 327.311523,106.573044 328.002502,107.660995 
z"/>
<path fill="#C5F3F9" opacity="1.000000" stroke="none" 
	d="
M263.271881,376.201904 
	C263.544922,375.976898 264.024689,375.958984 264.867126,375.918396 
	C265.526550,376.183533 265.823334,376.471283 266.200531,376.953918 
	C265.346832,376.902191 264.412750,376.655579 263.271881,376.201904 
z"/>
<path fill="#79BEC3" opacity="1.000000" stroke="none" 
	d="
M360.699188,219.275742 
	C360.935699,220.047379 361.021667,221.075882 361.035583,222.483673 
	C360.825226,221.752853 360.686920,220.642731 360.699188,219.275742 
z"/>
<path fill="#C5F2FA" opacity="1.000000" stroke="none" 
	d="
M291.660645,88.842178 
	C291.954590,89.023834 291.966064,89.193466 291.989166,89.617767 
	C290.884308,89.628242 289.767792,89.384026 288.370483,88.938484 
	C288.089661,88.737160 288.165100,88.741699 288.513489,88.802185 
	C289.323334,88.848892 289.784851,88.835114 290.246338,88.821327 
	C290.623627,88.824265 291.000885,88.827209 291.660645,88.842178 
z"/>
<path fill="#C5F2FA" opacity="1.000000" stroke="none" 
	d="
M241.421722,88.749184 
	C241.909714,88.779358 242.129395,88.831329 242.681122,88.949120 
	C242.212784,89.282387 241.412399,89.549843 240.288788,89.822220 
	C239.981308,89.659683 239.997055,89.492218 240.043854,89.072845 
	C240.434418,88.804276 240.793915,88.787628 241.421722,88.749184 
z"/>
<path fill="#C7F4F9" opacity="1.000000" stroke="none" 
	d="
M84.138123,181.610809 
	C83.932251,181.962631 83.745926,181.969589 83.279991,181.980652 
	C83.212730,181.181122 83.425072,180.377502 83.889343,179.382874 
	C84.146736,179.883209 84.152199,180.574585 84.138123,181.610809 
z"/>
<path fill="#CAF6FA" opacity="1.000000" stroke="none" 
	d="
M241.063324,366.300720 
	C241.111496,366.027893 241.349030,365.988647 241.943390,365.879822 
	C242.300186,365.810303 242.651672,365.855408 242.826828,365.881409 
	C242.994843,366.097687 242.987686,366.287994 242.965591,366.763428 
	C242.384659,366.877136 241.818665,366.705719 241.063324,366.300720 
z"/>
<path fill="#C5F2FA" opacity="1.000000" stroke="none" 
	d="
M279.323608,87.019287 
	C279.272858,86.925865 279.599640,86.958618 279.761963,86.976990 
	C279.924316,86.995354 279.677582,87.171852 279.677582,87.171852 
	C279.677582,87.171852 279.374359,87.112709 279.323608,87.019287 
z"/>
<path fill="#CAF6FA" opacity="1.000000" stroke="none" 
	d="
M239.568573,364.755188 
	C239.878128,364.872040 239.904892,365.056854 239.963577,365.519836 
	C239.667099,365.688568 239.338684,365.579071 238.871857,365.237610 
	C238.917557,364.944794 239.101669,364.883972 239.568573,364.755188 
z"/>
<path fill="#C5F2FA" opacity="1.000000" stroke="none" 
	d="
M259.179047,87.060791 
	C259.116089,86.981659 259.415802,86.951218 259.564728,86.936584 
	C259.713654,86.921959 259.533875,87.140511 259.533875,87.140511 
	C259.533875,87.140511 259.242004,87.139931 259.179047,87.060791 
z"/>
<path fill="#C5F3F9" opacity="1.000000" stroke="none" 
	d="
M321.893860,391.746094 
	C321.660645,391.868103 321.413971,391.679565 321.115784,391.208862 
	C321.363617,391.036011 321.635681,391.205627 321.893860,391.746094 
z"/>
<path fill="#C5F3F9" opacity="1.000000" stroke="none" 
	d="
M322.865234,392.766174 
	C322.632324,392.888977 322.394043,392.706268 322.113190,392.244110 
	C322.353149,392.082642 322.616241,392.247955 322.865234,392.766174 
z"/>
<path fill="#C5F2FA" opacity="1.000000" stroke="none" 
	d="
M293.845276,90.246872 
	C293.974579,90.153572 294.250427,90.264885 294.691162,90.543930 
	C294.551666,90.693199 294.263580,90.606468 293.845276,90.246872 
z"/>
<path fill="#AEEEF5" opacity="1.000000" stroke="none" 
	d="
M315.083344,101.233749 
	C315.314453,101.096657 315.579376,101.279282 315.896851,101.766220 
	C315.732086,101.810944 315.454712,101.638588 315.083344,101.233749 
z"/>
<path fill="#C3F4FA" opacity="1.000000" stroke="none" 
	d="
M233.876221,81.149048 
	C233.962875,81.427185 233.739731,81.680763 233.322830,82.098991 
	C233.129074,82.263634 233.056381,81.817978 233.026031,81.594360 
	C233.185913,81.288658 233.376144,81.206581 233.876221,81.149048 
z"/>
<path fill="#AEEEF5" opacity="1.000000" stroke="none" 
	d="
M323.130737,109.190445 
	C323.370911,109.032486 323.627228,109.198151 323.916840,109.672302 
	C323.666534,109.863358 323.398804,109.707787 323.130737,109.190445 
z"/>
<path fill="#AEEEF5" opacity="1.000000" stroke="none" 
	d="
M316.100525,102.225433 
	C316.336395,102.091789 316.595245,102.278214 316.900330,102.766846 
	C316.655548,102.931885 316.381226,102.757362 316.100525,102.225433 
z"/>
<path fill="#AEEEF5" opacity="1.000000" stroke="none" 
	d="
M317.098236,103.227188 
	C317.333496,103.089638 317.591980,103.271576 317.900238,103.751816 
	C317.653961,103.928383 317.377777,103.760574 317.098236,103.227188 
z"/>
<path fill="#AEEEF5" opacity="1.000000" stroke="none" 
	d="
M318.122803,104.215958 
	C318.358124,104.073395 318.616913,104.251450 318.911774,104.740158 
	C318.670929,104.901245 318.403748,104.729828 318.122803,104.215958 
z"/>
<path fill="#AFEBF5" opacity="1.000000" stroke="none" 
	d="
M325.881653,104.786270 
	C325.643677,104.907883 325.390625,104.710510 325.095886,104.212738 
	C325.262878,104.176994 325.533661,104.361977 325.881653,104.786270 
z"/>
<path fill="#AEEEF5" opacity="1.000000" stroke="none" 
	d="
M319.119019,105.222717 
	C319.357697,105.087029 319.612061,105.271263 319.906494,105.757172 
	C319.658783,105.925674 319.388153,105.753609 319.119019,105.222717 
z"/>
<path fill="#AEEEF5" opacity="1.000000" stroke="none" 
	d="
M320.109406,106.223221 
	C320.343964,106.080231 320.602509,106.255859 320.909607,106.729874 
	C320.663055,106.913498 320.388123,106.751366 320.109406,106.223221 
z"/>
<path fill="#AEEEF5" opacity="1.000000" stroke="none" 
	d="
M321.146973,107.207535 
	C321.382599,107.062263 321.642303,107.237930 321.940063,107.723701 
	C321.697479,107.891411 321.428467,107.722961 321.146973,107.207535 
z"/>
<path fill="#AFEBF5" opacity="1.000000" stroke="none" 
	d="
M328.778076,108.888718 
	C328.532410,108.966034 328.315155,108.733772 328.089111,108.214691 
	C328.260162,108.203087 328.502228,108.420174 328.778076,108.888718 
z"/>
<path fill="#AFEBF5" opacity="1.000000" stroke="none" 
	d="
M319.806580,97.831230 
	C319.580658,97.943375 319.338409,97.750664 319.066345,97.262840 
	C319.301086,97.130180 319.552307,97.316399 319.806580,97.831230 
z"/>
<path fill="#AEEEF5" opacity="1.000000" stroke="none" 
	d="
M324.203308,110.191704 
	C324.432465,110.042336 324.675079,110.201454 324.942383,110.660019 
	C324.709290,110.825752 324.459198,110.672661 324.203308,110.191704 
z"/>
<path fill="#AFEBF5" opacity="1.000000" stroke="none" 
	d="
M322.725464,100.848511 
	C322.506348,100.978790 322.279663,100.818405 322.026123,100.381821 
	C322.251862,100.225395 322.491394,100.376144 322.725464,100.848511 
z"/>
<path fill="#AEEEF5" opacity="1.000000" stroke="none" 
	d="
M325.192078,111.200119 
	C325.438141,111.065872 325.677368,111.250175 325.926941,111.742409 
	C325.679901,111.890846 325.429199,111.713623 325.192078,111.200119 
z"/>
<path fill="#C3F3F9" opacity="1.000000" stroke="none" 
	d="
M191.229843,174.173309 
	C191.144913,173.883789 191.297134,173.619537 191.645752,173.212051 
	C191.836136,173.222458 191.871323,173.399826 191.859558,173.844650 
	C191.812622,174.112106 191.425781,174.174805 191.229843,174.173309 
z"/>
<path fill="#AFEBF5" opacity="1.000000" stroke="none" 
	d="
M321.751678,99.841812 
	C321.529327,99.965691 321.297729,99.793991 321.031921,99.344696 
	C321.261292,99.191093 321.509521,99.350807 321.751678,99.841812 
z"/>
<path fill="#C3F3F9" opacity="1.000000" stroke="none" 
	d="
M194.053497,180.718079 
	C193.821152,180.824783 193.682373,180.612106 193.713562,180.193146 
	C193.753952,180.064453 194.017532,180.476273 194.053497,180.718079 
z"/>
<path fill="#C3F3F9" opacity="1.000000" stroke="none" 
	d="
M194.597900,181.686722 
	C194.447845,181.698334 194.304932,181.491714 194.112305,181.092590 
	C194.297256,181.030945 194.478088,181.220413 194.597900,181.686722 
z"/>
<path fill="#AFEBF5" opacity="1.000000" stroke="none" 
	d="
M320.785004,98.836060 
	C320.561768,98.957321 320.323730,98.777985 320.043396,98.317932 
	C320.272888,98.166855 320.529236,98.332939 320.785004,98.836060 
z"/>
<path fill="#C7F4F9" opacity="1.000000" stroke="none" 
	d="
M275.820801,85.696960 
	C271.730316,85.888245 267.250793,85.909508 262.287170,85.902832 
	C266.345947,85.758911 270.888855,85.642929 275.820801,85.696960 
z"/>
<path fill="#C7F4F9" opacity="1.000000" stroke="none" 
	d="
M290.040039,88.695190 
	C289.784851,88.835114 289.323334,88.848892 288.520691,88.839294 
	C288.730927,88.733612 289.282349,88.651321 290.040039,88.695190 
z"/>
</svg>